<svg width="118" height="118" viewBox="0 0 118 118" fill="none" xmlns="http://www.w3.org/2000/svg">
<circle cx="59.0112" cy="59.0984" r="56.2365" stroke="url(#paint0_linear_131_102)" stroke-width="4"/>
<path d="M82.5296 47.6816C86.8499 47.6816 88.9983 42.4445 85.9227 39.4105V39.4105C85.0185 38.5186 83.7996 38.0186 82.5296 38.0186H73.9882C71.3199 38.0186 69.1567 40.1817 69.1567 42.8501V42.8501C69.1567 45.5184 71.3199 47.6816 73.9882 47.6816H82.5296Z" fill="url(#paint1_linear_131_102)"/>
<path d="M67.2632 42.8501C65.054 42.8501 63.2632 44.641 63.2632 46.8501V49.9981C63.2632 51.4602 62.0779 52.6455 60.6158 52.6455V52.6455C59.1537 52.6455 57.9684 51.4602 57.9684 49.9981V46.8501C57.9684 44.641 56.1775 42.8501 53.9684 42.8501H36.8181C34.609 42.8501 32.8181 44.641 32.8181 46.8501V76.1784C32.8181 78.3875 34.609 80.1784 36.8181 80.1784H84.4134C86.6226 80.1784 88.4134 78.3875 88.4134 76.1784V46.8501C88.4134 44.641 86.6226 42.8501 84.4134 42.8501H67.2632ZM84.6188 74.9608C84.6188 75.7467 83.9818 76.3838 83.1959 76.3838H68.5469C67.7611 76.3838 67.124 75.7467 67.124 74.9608V74.9608C67.124 74.1749 67.7611 73.5378 68.5469 73.5378H83.1959C83.9818 73.5378 84.6188 74.1749 84.6188 74.9608V74.9608Z" fill="url(#paint2_linear_131_102)"/>
<path d="M74.165 68.9907C74.165 68.4384 74.6128 67.9907 75.165 67.9907H75.8316C76.3839 67.9907 76.8316 68.4384 76.8316 68.9907V71.175C76.8316 71.4511 76.6077 71.675 76.3316 71.675H74.665C74.3889 71.675 74.165 71.4511 74.165 71.175V68.9907Z" fill="#16121A"/>
<path d="M68.1597 68.9492C68.1597 68.3969 68.6074 67.9492 69.1597 67.9492H69.8262C70.3785 67.9492 70.8262 68.3969 70.8262 68.9492V71.1754C70.8262 71.4515 70.6024 71.6754 70.3262 71.6754H68.6597C68.3835 71.6754 68.1597 71.4515 68.1597 71.1754V68.9492Z" fill="#161219"/>
<path d="M69.1602 66.0245C69.3185 65.7869 69.6676 65.7869 69.8259 66.0245L71.9969 69.283C72.174 69.5488 71.9834 69.9048 71.664 69.9048H67.3221C67.0027 69.9048 66.8121 69.5488 66.9892 69.283L69.1602 66.0245Z" fill="#16121A"/>
<path d="M75.1655 66.0245C75.3238 65.7869 75.673 65.7869 75.8313 66.0245L78.0022 69.283C78.1793 69.5488 77.9888 69.9048 77.6694 69.9048H73.3275C73.0081 69.9048 72.8175 69.5488 72.9946 69.283L75.1655 66.0245Z" fill="#16121A"/>
<rect x="67.1162" y="73.5327" width="17.5024" height="2.84632" rx="1.42316" fill="#16121A"/>
<defs>
<linearGradient id="paint0_linear_131_102" x1="59.0112" y1="0.861816" x2="59.0112" y2="117.335" gradientUnits="userSpaceOnUse">
<stop stop-color="#A4CFFF"/>
<stop offset="1" stop-color="#886AFF"/>
</linearGradient>
<linearGradient id="paint1_linear_131_102" x1="81.7319" y1="38.0186" x2="81.7319" y2="47.6816" gradientUnits="userSpaceOnUse">
<stop stop-color="#A3D1FF"/>
<stop offset="1" stop-color="#C067FF"/>
</linearGradient>
<linearGradient id="paint2_linear_131_102" x1="60.6158" y1="42.8501" x2="60.6158" y2="80.1784" gradientUnits="userSpaceOnUse">
<stop stop-color="#A3D1FF"/>
<stop offset="1" stop-color="#C067FF"/>
</linearGradient>
</defs>
</svg>
