<svg width="118" height="118" viewBox="0 0 118 118" fill="none" xmlns="http://www.w3.org/2000/svg">
<path d="M42.8192 72.5051C38.4726 67.0899 34.9904 61.8973 32.9406 57.9904C37.1884 65.7299 47.6104 77.0301 50.7963 78.5879C51.3643 72.6534 49.7096 66.4965 45.684 61.5017C41.3374 56.0865 35.1139 53.1193 28.6928 52.7236C27.7049 59.0784 29.2855 65.8041 33.6321 71.2193C37.6576 76.2388 43.3132 79.1566 49.2157 79.8737C47.1658 77.6977 44.9925 75.2003 42.8192 72.5051Z" fill="url(#paint0_linear_131_107)"/>
<path d="M82.2105 45.4785C78.7529 51.7839 72.8751 60.1663 65.5896 68.8454C61.9345 73.1973 58.3041 77.203 54.8713 80.6648C64.5524 79.7004 73.863 75.1013 80.6052 67.065C87.8907 58.3859 90.7061 47.432 89.2984 37.022C78.8023 37.4423 68.5285 42.1157 61.2677 50.7948C54.5255 58.831 51.6113 68.8207 52.3522 78.5383C57.5138 74.854 65.5896 68.8454 82.2105 45.4785Z" fill="url(#paint1_linear_131_107)"/>
<circle cx="59.0295" cy="58.8435" r="56.2365" stroke="url(#paint2_linear_131_107)" stroke-width="4"/>
<defs>
<linearGradient id="paint0_linear_131_107" x1="39.657" y1="52.7236" x2="39.657" y2="79.8737" gradientUnits="userSpaceOnUse">
<stop stop-color="#39FF9C"/>
<stop offset="1" stop-color="#75D0B9"/>
</linearGradient>
<linearGradient id="paint1_linear_131_107" x1="70.9445" y1="37.022" x2="70.9445" y2="80.6648" gradientUnits="userSpaceOnUse">
<stop stop-color="#39FF9C"/>
<stop offset="1" stop-color="#75D0B9"/>
</linearGradient>
<linearGradient id="paint2_linear_131_107" x1="59.0295" y1="0.606934" x2="59.0295" y2="117.08" gradientUnits="userSpaceOnUse">
<stop stop-color="#A4CFFF"/>
<stop offset="1" stop-color="#886AFF"/>
</linearGradient>
</defs>
</svg>
