<svg width="118" height="117" viewBox="0 0 118 117" fill="none" xmlns="http://www.w3.org/2000/svg">
<circle cx="58.882" cy="58.2356" r="56.2365" stroke="url(#paint0_linear_131_113)" stroke-width="4"/>
<path d="M53.1448 41.0236L56.9696 44.8485C57.4769 45.3557 58.1648 45.6406 58.8821 45.6406C59.5994 45.6406 60.2873 45.3557 60.7945 44.8485L64.6194 41.0236C65.1266 40.5164 65.4115 39.8285 65.4115 39.1112C65.4115 38.3939 65.1266 37.7059 64.6194 37.1987L60.7945 33.3739C60.2873 32.8667 59.5994 32.5817 58.8821 32.5817C58.1648 32.5817 57.4769 32.8667 56.9696 33.3739L53.1448 37.1987C52.6376 37.7059 52.3526 38.3939 52.3526 39.1112C52.3526 39.8285 52.6376 40.5164 53.1448 41.0236ZM62.707 50.5858L66.5318 54.4107C67.039 54.9179 67.727 55.2028 68.4443 55.2028C69.1616 55.2028 69.8495 54.9179 70.3567 54.4107L74.1816 50.5858C74.6888 50.0786 74.9737 49.3907 74.9737 48.6734C74.9737 47.9561 74.6888 47.2681 74.1816 46.7609L70.3567 42.9361C69.8495 42.4288 69.1616 42.1439 68.4443 42.1439C67.727 42.1439 67.039 42.4288 66.5318 42.9361L62.707 46.7609C62.1997 47.2681 61.9148 47.9561 61.9148 48.6734C61.9148 49.3907 62.1997 50.0786 62.707 50.5858ZM72.2691 60.148L76.094 63.9729C76.6012 64.4801 77.2892 64.765 78.0065 64.765C78.7238 64.765 79.4117 64.4801 79.9189 63.9729L83.7438 60.148C84.251 59.6408 84.5359 58.9529 84.5359 58.2356C84.5359 57.5182 84.251 56.8303 83.7438 56.3231L79.9189 52.4982C79.4117 51.991 78.7238 51.7061 78.0065 51.7061C77.2892 51.7061 76.6012 51.991 76.094 52.4982L72.2691 56.3231C71.7619 56.8303 71.477 57.5182 71.477 58.2356C71.477 58.9529 71.7619 59.6408 72.2691 60.148ZM43.5826 46.7609C43.0754 47.2681 42.7904 47.9561 42.7904 48.6734C42.7904 49.3907 43.0754 50.0786 43.5826 50.5858L47.4075 54.4107C47.9147 54.9179 48.6026 55.2028 49.3199 55.2028C50.0372 55.2028 50.7251 54.9179 51.2323 54.4107L55.0572 50.5858C55.5644 50.0786 55.8494 49.3907 55.8494 48.6734C55.8494 47.9561 55.5644 47.2681 55.0572 46.7609L51.2323 42.9361C50.7251 42.4288 50.0372 42.1439 49.3199 42.1439C48.6026 42.1439 47.9147 42.4288 47.4075 42.9361L43.5826 46.7609ZM53.1448 56.3231C52.6376 56.8303 52.3526 57.5182 52.3526 58.2356C52.3526 58.9529 52.6376 59.6408 53.1448 60.148L56.9696 63.9729C57.4769 64.4801 58.1648 64.765 58.8821 64.765C59.5994 64.765 60.2873 64.4801 60.7945 63.9729L64.6194 60.148C65.1266 59.6408 65.4115 58.9529 65.4115 58.2356C65.4115 57.5182 65.1266 56.8303 64.6194 56.3231L60.7945 52.4982C60.2873 51.991 59.5994 51.7061 58.8821 51.7061C58.1648 51.7061 57.4769 51.991 56.9696 52.4982L53.1448 56.3231ZM62.707 65.8853C62.1997 66.3925 61.9148 67.0804 61.9148 67.7977C61.9148 68.515 62.1997 69.203 62.707 69.7102L66.5318 73.5351C67.039 74.0423 67.727 74.3272 68.4443 74.3272C69.1616 74.3272 69.8495 74.0423 70.3567 73.5351L74.1816 69.7102C74.6888 69.203 74.9737 68.515 74.9737 67.7977C74.9737 67.0804 74.6888 66.3925 74.1816 65.8853L70.3567 62.0604C69.8495 61.5532 69.1616 61.2683 68.4443 61.2683C67.727 61.2683 67.039 61.5532 66.5318 62.0604L62.707 65.8853ZM34.0204 56.3231C33.5132 56.8303 33.2282 57.5182 33.2282 58.2356C33.2282 58.9529 33.5132 59.6408 34.0204 60.148L37.8453 63.9729C38.3525 64.4801 39.0404 64.765 39.7577 64.765C40.475 64.765 41.1629 64.4801 41.6701 63.9729L45.495 60.148C46.0022 59.6408 46.2872 58.9529 46.2872 58.2356C46.2872 57.5182 46.0022 56.8303 45.495 56.3231L41.6701 52.4982C41.1629 51.991 40.475 51.7061 39.7577 51.7061C39.0404 51.7061 38.3525 51.991 37.8453 52.4982L34.0204 56.3231ZM43.5826 65.8853C43.0754 66.3925 42.7904 67.0804 42.7904 67.7977C42.7904 68.515 43.0754 69.203 43.5826 69.7102L47.4075 73.5351C47.9147 74.0423 48.6026 74.3272 49.3199 74.3272C50.0372 74.3272 50.7251 74.0423 51.2323 73.5351L55.0572 69.7102C55.5644 69.203 55.8494 68.515 55.8494 67.7977C55.8494 67.0804 55.5644 66.3925 55.0572 65.8853L51.2323 62.0604C50.7251 61.5532 50.0372 61.2683 49.3199 61.2683C48.6026 61.2683 47.9147 61.5532 47.4075 62.0604L43.5826 65.8853ZM53.1448 75.4475C52.6376 75.9547 52.3526 76.6426 52.3526 77.3599C52.3526 78.0772 52.6376 78.7652 53.1448 79.2724L56.9696 83.0972C57.4769 83.6044 58.1648 83.8894 58.8821 83.8894C59.5994 83.8894 60.2873 83.6044 60.7945 83.0972L64.6194 79.2724C65.1266 78.7652 65.4115 78.0772 65.4115 77.3599C65.4115 76.6426 65.1266 75.9547 64.6194 75.4475L60.7945 71.6226C60.2873 71.1154 59.5994 70.8305 58.8821 70.8305C58.1648 70.8305 57.4769 71.1154 56.9696 71.6226L53.1448 75.4475Z" fill="url(#paint1_linear_131_113)"/>
<defs>
<linearGradient id="paint0_linear_131_113" x1="58.882" y1="-0.000976563" x2="58.882" y2="116.472" gradientUnits="userSpaceOnUse">
<stop stop-color="#A4CFFF"/>
<stop offset="1" stop-color="#886AFF"/>
</linearGradient>
<linearGradient id="paint1_linear_131_113" x1="72.2691" y1="44.8485" x2="45.495" y2="71.6226" gradientUnits="userSpaceOnUse">
<stop stop-color="#A6C5FF"/>
<stop offset="1" stop-color="#886BFF"/>
</linearGradient>
</defs>
</svg>
