<svg width="132" height="128" viewBox="0 0 132 128" fill="none" xmlns="http://www.w3.org/2000/svg">
<path d="M42.8691 72.4404V69.9204L49.3491 63.8004C49.8611 63.3364 50.2371 62.9204 50.4771 62.5524C50.7171 62.1844 50.8771 61.8484 50.9571 61.5444C51.0531 61.2404 51.1011 60.9604 51.1011 60.7044C51.1011 60.0324 50.8691 59.5204 50.4051 59.1684C49.9571 58.8004 49.2931 58.6164 48.4131 58.6164C47.7091 58.6164 47.0531 58.7524 46.4451 59.0244C45.8531 59.2964 45.3491 59.7204 44.9331 60.2964L42.1011 58.4724C42.7411 57.5124 43.6371 56.7524 44.7891 56.1924C45.9411 55.6324 47.2691 55.3524 48.7731 55.3524C50.0211 55.3524 51.1091 55.5604 52.0371 55.9764C52.9811 56.3764 53.7091 56.9444 54.2211 57.6804C54.7491 58.4164 55.0131 59.2964 55.0131 60.3204C55.0131 60.8644 54.9411 61.4084 54.7971 61.9524C54.6691 62.4804 54.3971 63.0404 53.9811 63.6324C53.5811 64.2244 52.9891 64.8884 52.2051 65.6244L46.8291 70.6884L46.0851 69.2724H55.5651V72.4404H42.8691ZM56.7196 68.9124V66.2964L64.6396 55.6404H68.7196L60.9676 66.2964L59.0716 65.7444H72.2956V68.9124H56.7196ZM65.7676 72.4404V68.9124L65.8876 65.7444V62.6004H69.5596V72.4404H65.7676ZM86.0345 55.6404H89.9225V72.4404H86.0345V55.6404ZM78.4025 72.4404H74.5145V55.6404H78.4025V72.4404ZM86.3225 65.5524H78.1145V62.2644H86.3225V65.5524Z" fill="white"/>
<path d="M116.394 63.9404C116.394 90.6055 93.91 112.534 65.7827 112.534C37.6554 112.534 15.1719 90.6055 15.1719 63.9404C15.1719 37.2753 37.6554 15.3467 65.7827 15.3467C93.91 15.3467 116.394 37.2753 116.394 63.9404Z" stroke="url(#paint0_linear_108_31)" stroke-width="10"/>
<path d="M130.882 63.9404C130.882 98.5626 101.754 126.661 65.7827 126.661C29.8116 126.661 0.683105 98.5626 0.683105 63.9404C0.683105 29.3183 29.8116 1.22021 65.7827 1.22021C101.754 1.22021 130.882 29.3183 130.882 63.9404Z" stroke="url(#paint1_linear_108_31)"/>
<defs>
<linearGradient id="paint0_linear_108_31" x1="65.7827" y1="10.3467" x2="65.7827" y2="117.534" gradientUnits="userSpaceOnUse">
<stop stop-color="#6CC7FF"/>
<stop offset="1" stop-color="#7658A3"/>
</linearGradient>
<linearGradient id="paint1_linear_108_31" x1="65.7827" y1="0.720215" x2="65.7827" y2="127.161" gradientUnits="userSpaceOnUse">
<stop stop-color="#6CC7FF"/>
<stop offset="1" stop-color="#7658A3"/>
</linearGradient>
</defs>
</svg>
