<svg width="117" height="117" viewBox="0 0 117 117" fill="none" xmlns="http://www.w3.org/2000/svg">
<g clip-path="url(#clip0_131_124)">
<path d="M81.5772 86.9533H71.6555C71.3934 86.9533 71.1553 86.8029 71.0423 86.5674C70.2501 84.9158 68.6243 83.8902 66.8011 83.8902C64.9779 83.8902 63.3521 84.9164 62.5593 86.5674C62.4456 86.8029 62.2074 86.9533 61.9454 86.9533H53.0302C52.7682 86.9533 52.53 86.8029 52.4171 86.5674C51.6242 84.9158 49.9991 83.8902 48.1752 83.8902C46.3514 83.8902 44.7262 84.9158 43.9334 86.5674C43.8204 86.8029 43.5815 86.9533 43.3195 86.9533H33.3978C33.0222 86.9533 32.7173 86.6491 32.7173 86.2728V26.3846C32.7173 26.009 33.0222 25.7041 33.3978 25.7041H81.5772C81.9535 25.7041 82.2577 26.009 82.2577 26.3846V86.2728C82.2577 86.6491 81.9535 86.9533 81.5772 86.9533ZM70.5615 83.8464C71.6862 84.7363 72.9512 85.5922 74.3854 85.5922H76.8973C79.1064 85.5922 80.8973 83.8014 80.8973 81.5922V31.0652C80.8973 28.8561 79.1064 27.0652 76.8973 27.0652H38.0784C35.8692 27.0652 34.0784 28.8561 34.0784 31.0652V81.5922C34.0784 83.8014 35.8692 85.5922 38.0784 85.5922H40.5903C42.0244 85.5922 43.2895 84.7363 44.4142 83.8464C45.4693 83.0116 46.7918 82.5291 48.1752 82.5291C49.5587 82.5291 50.8811 83.0116 51.9363 83.8464C53.061 84.7363 54.326 85.5922 55.7602 85.5922H59.2169C60.6506 85.5922 61.9155 84.7368 63.0398 83.8471C64.0954 83.0119 65.4181 82.5291 66.8011 82.5291C68.1841 82.5291 69.5064 83.0116 70.5615 83.8464Z" fill="url(#paint0_linear_131_124)"/>
<path d="M72.2245 40.2918H42.7513C42.3757 40.2918 42.0708 39.9869 42.0708 39.6112C42.0708 39.2355 42.3757 38.9307 42.7513 38.9307H72.2245C72.6008 38.9307 72.905 39.2355 72.905 39.6112C72.905 39.9869 72.6008 40.2918 72.2245 40.2918Z" fill="url(#paint1_linear_131_124)"/>
<path d="M72.2245 49.6047H42.7513C42.3757 49.6047 42.0708 49.2999 42.0708 48.9242C42.0708 48.5485 42.3757 48.2437 42.7513 48.2437H72.2245C72.6008 48.2437 72.905 48.5485 72.905 48.9242C72.905 49.2999 72.6008 49.6047 72.2245 49.6047Z" fill="url(#paint2_linear_131_124)"/>
<path d="M72.2245 58.9177H42.7513C42.3757 58.9177 42.0708 58.6135 42.0708 58.2372C42.0708 57.8608 42.3757 57.5566 42.7513 57.5566H72.2245C72.6008 57.5566 72.905 57.8608 72.905 58.2372C72.905 58.6135 72.6008 58.9177 72.2245 58.9177Z" fill="url(#paint3_linear_131_124)"/>
<path d="M72.2244 68.2302H60.4462C60.0698 68.2302 59.7656 67.926 59.7656 67.5497C59.7656 67.1733 60.0698 66.8691 60.4462 66.8691H72.2251C72.6014 66.8691 72.9056 67.1733 72.9056 67.5497C72.9056 67.926 72.6007 68.2302 72.2244 68.2302Z" fill="url(#paint4_linear_131_124)"/>
<path d="M56.9997 81.3209V70.4118H57.6986V81.3209H56.9997ZM59.352 73.6845C59.3009 73.2527 59.0935 72.9175 58.7298 72.6788C58.3662 72.4402 57.9202 72.3209 57.3918 72.3209C57.0054 72.3209 56.6673 72.3834 56.3776 72.5084C56.0906 72.6334 55.8662 72.8053 55.7043 73.024C55.5452 73.2428 55.4656 73.4913 55.4656 73.7698C55.4656 74.0027 55.521 74.203 55.6318 74.3706C55.7455 74.5354 55.8904 74.6732 56.0665 74.784C56.2426 74.8919 56.4273 74.9814 56.6205 75.0524C56.8137 75.1206 56.9912 75.176 57.1531 75.2186L58.0395 75.4573C58.2668 75.5169 58.5196 75.5993 58.798 75.7044C59.0793 75.8095 59.3477 75.953 59.6034 76.1348C59.8619 76.3138 60.075 76.5439 60.2426 76.8252C60.4102 77.1064 60.4941 77.4516 60.4941 77.8607C60.4941 78.3323 60.3705 78.7584 60.1233 79.1391C59.879 79.5198 59.521 79.8223 59.0494 80.0467C58.5807 80.2712 58.0111 80.3834 57.3406 80.3834C56.7156 80.3834 56.1744 80.2825 55.7171 80.0808C55.2625 79.8791 54.9046 79.5979 54.6432 79.2371C54.3847 78.8763 54.2384 78.4573 54.2043 77.98H55.2952C55.3236 78.3095 55.4344 78.5823 55.6276 78.7982C55.8236 79.0112 56.0708 79.1703 56.3691 79.2754C56.6702 79.3777 56.9941 79.4288 57.3406 79.4288C57.7441 79.4288 58.1063 79.3635 58.4273 79.2328C58.7483 79.0993 59.0026 78.9146 59.1901 78.6788C59.3776 78.4402 59.4713 78.1618 59.4713 77.8436C59.4713 77.5538 59.3904 77.318 59.2284 77.1362C59.0665 76.9544 58.8534 76.8067 58.5892 76.693C58.325 76.5794 58.0395 76.48 57.7327 76.3948L56.6588 76.0879C55.977 75.8919 55.4372 75.6121 55.0395 75.2484C54.6418 74.8848 54.4429 74.409 54.4429 73.8209C54.4429 73.3323 54.575 72.9061 54.8392 72.5425C55.1063 72.176 55.4642 71.8919 55.9131 71.6902C56.3648 71.4857 56.8691 71.3834 57.4259 71.3834C57.9884 71.3834 58.4884 71.4842 58.9259 71.6859C59.3634 71.8848 59.71 72.1575 59.9656 72.5041C60.2242 72.8507 60.3605 73.2442 60.3747 73.6845H59.352Z" fill="url(#paint5_linear_131_124)"/>
</g>
<circle cx="58.4826" cy="58.2365" r="56.2365" stroke="url(#paint6_linear_131_124)" stroke-width="4"/>
<defs>
<linearGradient id="paint0_linear_131_124" x1="57.4875" y1="25.7041" x2="57.4875" y2="86.9533" gradientUnits="userSpaceOnUse">
<stop stop-color="#6CC0F9"/>
<stop offset="1" stop-color="#B798FF"/>
</linearGradient>
<linearGradient id="paint1_linear_131_124" x1="57.4879" y1="38.9307" x2="57.4879" y2="40.2918" gradientUnits="userSpaceOnUse">
<stop stop-color="#6CC0F9"/>
<stop offset="1" stop-color="#B798FF"/>
</linearGradient>
<linearGradient id="paint2_linear_131_124" x1="57.4879" y1="48.2437" x2="57.4879" y2="49.6047" gradientUnits="userSpaceOnUse">
<stop stop-color="#6CC0F9"/>
<stop offset="1" stop-color="#B798FF"/>
</linearGradient>
<linearGradient id="paint3_linear_131_124" x1="57.4879" y1="57.5566" x2="57.4879" y2="58.9177" gradientUnits="userSpaceOnUse">
<stop stop-color="#6CC0F9"/>
<stop offset="1" stop-color="#B798FF"/>
</linearGradient>
<linearGradient id="paint4_linear_131_124" x1="66.3356" y1="66.8691" x2="66.3356" y2="68.2302" gradientUnits="userSpaceOnUse">
<stop stop-color="#6CC0F9"/>
<stop offset="1" stop-color="#B798FF"/>
</linearGradient>
<linearGradient id="paint5_linear_131_124" x1="57.5225" y1="68.23" x2="57.5225" y2="83.23" gradientUnits="userSpaceOnUse">
<stop stop-color="#6CC0F9"/>
<stop offset="1" stop-color="#B798FF"/>
</linearGradient>
<linearGradient id="paint6_linear_131_124" x1="58.4826" y1="0" x2="58.4826" y2="116.473" gradientUnits="userSpaceOnUse">
<stop stop-color="#6CC0F9"/>
<stop offset="1" stop-color="#8F73FF"/>
</linearGradient>
<clipPath id="clip0_131_124">
<rect width="62" height="62" fill="white" transform="translate(26.5225 25.3633)"/>
</clipPath>
</defs>
</svg>
