<svg width="1490" height="1705" viewBox="0 0 1490 1705" fill="none" xmlns="http://www.w3.org/2000/svg">
<rect x="-1.40177" y="-0.187166" width="420.447" height="958.152" transform="matrix(-0.607304 -0.79447 -0.79447 0.607304 1095.8 1119.8)" fill="url(#paint0_linear_65_37)" stroke="#3A3645" stroke-width="2"/>
<rect x="160.24" y="-107.624" width="326.105" height="1760.38" transform="rotate(-37.3971 160.24 -107.624)" fill="url(#paint1_linear_65_37)" stroke="url(#paint2_linear_65_37)" stroke-width="2"/>
<rect x="420.629" y="-306.894" width="326.105" height="1139.08" transform="rotate(-37.3971 420.629 -306.894)" fill="url(#paint3_linear_65_37)" stroke="url(#paint4_linear_65_37)" stroke-width="2"/>
<rect x="-1.40177" y="-0.187166" width="326.105" height="958.152" transform="matrix(-0.607304 -0.79447 -0.79447 0.607304 839.25 784.195)" fill="url(#paint5_linear_65_37)" stroke="url(#paint6_linear_65_37)" stroke-width="2"/>
<rect x="-142.794" y="36.2205" width="326.105" height="863.961" transform="rotate(-37.3978 -142.794 36.2205)" fill="url(#paint7_linear_65_37)" stroke="url(#paint8_linear_65_37)" stroke-width="2"/>
<mask id="path-6-outside-1_65_37" maskUnits="userSpaceOnUse" x="1064.77" y="622.574" width="207.471" height="260.822" fill="black">
<rect fill="white" x="1064.77" y="622.574" width="207.471" height="260.822"/>
<path d="M1088.4 670.128L1086.16 667.081L1127.47 664.442L1132.19 670.874L1100.9 693.849L1096.18 687.416L1118.91 670.727L1119.61 672.594L1086.77 674.599L1081.48 667.393L1093.13 636.73L1094.7 637.958L1072.07 654.577L1067.35 648.144L1098.64 625.17L1103.36 631.602L1088.4 670.128ZM1119.4 720.361C1116.34 716.201 1114.37 712.165 1113.49 708.252C1112.65 704.347 1112.87 700.717 1114.12 697.362C1115.41 694.039 1117.74 691.134 1121.13 688.649C1124.54 686.139 1128.03 684.771 1131.58 684.543C1135.16 684.348 1138.67 685.243 1142.12 687.231C1145.62 689.226 1148.89 692.304 1151.95 696.463C1155.03 700.655 1156.98 704.703 1157.81 708.608C1158.68 712.489 1158.47 716.091 1157.19 719.414C1155.93 722.769 1153.59 725.702 1150.17 728.211C1146.79 730.696 1143.3 732.037 1139.73 732.233C1136.17 732.46 1132.66 731.593 1129.18 729.629C1125.74 727.642 1122.48 724.552 1119.4 720.361ZM1124.96 716.277C1126.85 718.857 1128.9 720.83 1131.09 722.196C1133.31 723.595 1135.61 724.262 1138 724.199C1140.4 724.167 1142.82 723.264 1145.24 721.488C1147.65 719.713 1149.24 717.681 1149.99 715.392C1150.77 713.136 1150.82 710.741 1150.15 708.206C1149.53 705.679 1148.28 703.126 1146.39 700.547C1144.52 698 1142.44 696.022 1140.17 694.615C1137.93 693.184 1135.6 692.485 1133.19 692.516C1130.79 692.547 1128.37 693.451 1125.95 695.226C1123.54 697.002 1121.95 699.034 1121.2 701.322C1120.45 703.611 1120.42 706.038 1121.11 708.606C1121.81 711.173 1123.09 713.73 1124.96 716.277ZM1160.21 767.943L1157.98 764.896L1199.29 762.257L1204.01 768.689L1172.72 791.664L1167.99 785.231L1190.72 768.542L1191.43 770.409L1158.58 772.415L1153.29 765.208L1164.95 734.546L1166.52 735.774L1143.88 752.392L1139.16 745.959L1170.45 722.985L1175.17 729.418L1160.21 767.943ZM1210.14 777.039L1214.86 783.471L1183.57 806.445L1178.85 800.013L1210.14 777.039ZM1243.38 822.318L1238.01 826.26L1220.33 802.174L1211.91 808.353L1226.4 828.086L1221.37 831.779L1206.88 812.046L1194.41 821.207L1189.68 814.775L1220.98 791.8L1243.38 822.318ZM1223.5 846.534L1228.87 842.592L1244.06 863.292L1238.69 867.234L1223.5 846.534ZM1210.96 843.754L1253.05 835.482L1258.16 842.447L1237.77 880.269L1232.62 873.256L1251.37 839.689L1253.64 842.785L1216.07 850.718L1210.96 843.754Z"/>
</mask>
<path d="M1088.4 670.128L1087.59 670.72L1088.67 672.189L1089.33 670.49L1088.4 670.128ZM1086.16 667.081L1086.1 666.083L1084.27 666.199L1085.35 667.673L1086.16 667.081ZM1127.47 664.442L1128.28 663.85L1127.95 663.409L1127.41 663.444L1127.47 664.442ZM1132.19 670.874L1132.78 671.68L1133.59 671.089L1133 670.282L1132.19 670.874ZM1100.9 693.849L1100.09 694.44L1100.69 695.246L1101.49 694.655L1100.9 693.849ZM1096.18 687.416L1095.59 686.61L1094.78 687.202L1095.37 688.008L1096.18 687.416ZM1118.91 670.727L1119.85 670.375L1119.38 669.14L1118.32 669.921L1118.91 670.727ZM1119.61 672.594L1119.67 673.592L1121.02 673.51L1120.55 672.243L1119.61 672.594ZM1086.77 674.599L1085.96 675.191L1086.29 675.631L1086.83 675.598L1086.77 674.599ZM1081.48 667.393L1080.54 667.038L1080.35 667.546L1080.67 667.985L1081.48 667.393ZM1093.13 636.73L1093.75 635.942L1092.68 635.107L1092.2 636.375L1093.13 636.73ZM1094.7 637.958L1095.29 638.765L1096.36 637.983L1095.32 637.17L1094.7 637.958ZM1072.07 654.577L1071.26 655.168L1071.85 655.974L1072.66 655.383L1072.07 654.577ZM1067.35 648.144L1066.75 647.338L1065.95 647.93L1066.54 648.736L1067.35 648.144ZM1098.64 625.17L1099.44 624.578L1098.85 623.772L1098.04 624.364L1098.64 625.17ZM1103.36 631.602L1104.29 631.964L1104.49 631.453L1104.17 631.011L1103.36 631.602ZM1089.2 669.536L1086.97 666.489L1085.35 667.673L1087.59 670.72L1089.2 669.536ZM1086.22 668.079L1127.53 665.44L1127.41 663.444L1086.1 666.083L1086.22 668.079ZM1126.66 665.034L1131.39 671.466L1133 670.282L1128.28 663.85L1126.66 665.034ZM1131.6 670.068L1100.31 693.042L1101.49 694.655L1132.78 671.68L1131.6 670.068ZM1101.71 693.257L1096.98 686.824L1095.37 688.008L1100.09 694.44L1101.71 693.257ZM1096.77 688.222L1119.5 671.533L1118.32 669.921L1095.59 686.61L1096.77 688.222ZM1117.97 671.078L1118.67 672.946L1120.55 672.243L1119.85 670.375L1117.97 671.078ZM1119.55 671.596L1086.71 673.601L1086.83 675.598L1119.67 673.592L1119.55 671.596ZM1087.57 674.008L1082.28 666.801L1080.67 667.985L1085.96 675.191L1087.57 674.008ZM1082.41 667.748L1094.07 637.086L1092.2 636.375L1080.54 667.038L1082.41 667.748ZM1092.51 637.518L1094.09 638.746L1095.32 637.17L1093.75 635.942L1092.51 637.518ZM1094.11 637.152L1071.48 653.771L1072.66 655.383L1095.29 638.765L1094.11 637.152ZM1072.87 653.985L1068.15 647.552L1066.54 648.736L1071.26 655.168L1072.87 653.985ZM1067.94 648.95L1099.23 625.976L1098.04 624.364L1066.75 647.338L1067.94 648.95ZM1097.83 625.762L1102.55 632.194L1104.17 631.011L1099.44 624.578L1097.83 625.762ZM1102.43 631.24L1087.47 669.766L1089.33 670.49L1104.29 631.964L1102.43 631.24ZM1113.49 708.252L1112.51 708.46L1112.51 708.473L1113.49 708.252ZM1114.12 697.362L1113.19 697.002L1113.19 697.011L1114.12 697.362ZM1131.58 684.543L1131.53 683.545L1131.52 683.545L1131.58 684.543ZM1142.12 687.231L1141.62 688.097L1141.62 688.099L1142.12 687.231ZM1157.81 708.608L1156.83 708.816L1156.84 708.825L1157.81 708.608ZM1157.19 719.414L1156.25 719.054L1156.25 719.063L1157.19 719.414ZM1139.73 732.233L1139.67 731.234L1139.66 731.235L1139.73 732.233ZM1129.18 729.629L1128.68 730.495L1128.69 730.5L1129.18 729.629ZM1131.09 722.196L1131.63 721.35L1131.62 721.347L1131.09 722.196ZM1138 724.199L1137.98 723.199L1137.97 723.199L1138 724.199ZM1149.99 715.392L1149.04 715.067L1149.04 715.08L1149.99 715.392ZM1150.15 708.206L1149.18 708.442L1149.18 708.452L1149.18 708.461L1150.15 708.206ZM1140.17 694.615L1139.63 695.458L1139.64 695.466L1140.17 694.615ZM1121.2 701.322L1122.15 701.634L1121.2 701.322ZM1121.11 708.606L1120.15 708.867L1121.11 708.606ZM1120.2 719.769C1117.21 715.69 1115.31 711.778 1114.46 708.031L1112.51 708.473C1113.44 712.553 1115.48 716.713 1118.59 720.953L1120.2 719.769ZM1114.46 708.043C1113.67 704.303 1113.88 700.87 1115.06 697.713L1113.19 697.011C1111.86 700.565 1111.64 704.391 1112.51 708.46L1114.46 708.043ZM1115.06 697.722C1116.26 694.607 1118.46 691.848 1121.72 689.455L1120.53 687.843C1117.02 690.421 1114.55 693.471 1113.19 697.002L1115.06 697.722ZM1121.72 689.455C1125.01 687.037 1128.32 685.755 1131.65 685.541L1131.52 683.545C1127.74 683.787 1124.08 685.242 1120.53 687.843L1121.72 689.455ZM1131.64 685.542C1135 685.358 1138.32 686.196 1141.62 688.097L1142.62 686.365C1139.02 684.291 1135.32 683.337 1131.53 683.545L1131.64 685.542ZM1141.62 688.099C1144.97 690.009 1148.15 692.978 1151.14 697.055L1152.75 695.872C1149.64 691.63 1146.26 688.444 1142.61 686.362L1141.62 688.099ZM1151.14 697.055C1154.16 701.166 1156.04 705.085 1156.83 708.816L1158.79 708.399C1157.92 704.321 1155.89 700.144 1152.75 695.872L1151.14 697.055ZM1156.84 708.825C1157.66 712.537 1157.46 715.936 1156.25 719.054L1158.12 719.774C1159.48 716.246 1159.69 712.441 1158.79 708.39L1156.84 708.825ZM1156.25 719.063C1155.07 722.205 1152.87 724.989 1149.58 727.405L1150.76 729.017C1154.31 726.414 1156.78 723.333 1158.12 719.765L1156.25 719.063ZM1149.58 727.405C1146.32 729.796 1143.02 731.051 1139.67 731.234L1139.78 733.231C1143.58 733.023 1147.25 731.597 1150.76 729.017L1149.58 727.405ZM1139.66 731.235C1136.32 731.449 1133 730.638 1129.67 728.758L1128.69 730.5C1132.31 732.547 1136.02 733.472 1139.79 733.231L1139.66 731.235ZM1129.68 728.763C1126.39 726.863 1123.22 723.882 1120.2 719.769L1118.59 720.953C1121.73 725.223 1125.09 728.421 1128.68 730.495L1129.68 728.763ZM1124.15 716.869C1126.11 719.527 1128.24 721.597 1130.56 723.045L1131.62 721.347C1129.56 720.062 1127.6 718.186 1125.77 715.685L1124.15 716.869ZM1130.56 723.042C1132.93 724.535 1135.42 725.268 1138.02 725.198L1137.97 723.199C1135.8 723.257 1133.69 722.654 1131.63 721.35L1130.56 723.042ZM1138.01 725.198C1140.67 725.164 1143.28 724.162 1145.83 722.294L1144.64 720.682C1142.35 722.365 1140.14 723.171 1137.98 723.199L1138.01 725.198ZM1145.83 722.294C1148.37 720.426 1150.11 718.235 1150.94 715.704L1149.04 715.08C1148.37 717.127 1146.94 718.999 1144.64 720.682L1145.83 722.294ZM1150.94 715.717C1151.78 713.255 1151.83 710.657 1151.11 707.95L1149.18 708.461C1149.81 710.825 1149.75 713.017 1149.04 715.067L1150.94 715.717ZM1151.12 707.969C1150.47 705.289 1149.15 702.617 1147.19 699.955L1145.58 701.139C1147.41 703.636 1148.6 706.07 1149.18 708.442L1151.12 707.969ZM1147.19 699.955C1145.26 697.323 1143.1 695.251 1140.7 693.765L1139.64 695.466C1141.79 696.794 1143.77 698.676 1145.58 701.139L1147.19 699.955ZM1140.71 693.772C1138.32 692.248 1135.81 691.482 1133.18 691.516L1133.21 693.516C1135.4 693.487 1137.54 694.121 1139.63 695.458L1140.71 693.772ZM1133.18 691.516C1130.52 691.551 1127.91 692.552 1125.36 694.42L1126.55 696.032C1128.84 694.35 1131.05 693.544 1133.21 693.516L1133.18 691.516ZM1125.36 694.42C1122.82 696.288 1121.08 698.48 1120.25 701.01L1122.15 701.634C1122.82 699.588 1124.25 697.715 1126.55 696.032L1125.36 694.42ZM1120.25 701.01C1119.43 703.503 1119.41 706.131 1120.15 708.867L1122.08 708.345C1121.43 705.946 1121.47 703.718 1122.15 701.634L1120.25 701.01ZM1120.15 708.867C1120.88 711.573 1122.22 714.241 1124.15 716.869L1125.77 715.685C1123.96 713.219 1122.74 710.773 1122.08 708.345L1120.15 708.867ZM1160.21 767.943L1159.41 768.535L1160.49 770.004L1161.15 768.305L1160.21 767.943ZM1157.98 764.896L1157.91 763.898L1156.09 764.015L1157.17 765.488L1157.98 764.896ZM1199.29 762.257L1200.09 761.665L1199.77 761.224L1199.22 761.259L1199.29 762.257ZM1204.01 768.689L1204.6 769.496L1205.41 768.904L1204.81 768.098L1204.01 768.689ZM1172.72 791.664L1171.91 792.256L1172.5 793.062L1173.31 792.47L1172.72 791.664ZM1167.99 785.231L1167.4 784.425L1166.6 785.017L1167.19 785.823L1167.99 785.231ZM1190.72 768.542L1191.66 768.191L1191.2 766.955L1190.13 767.736L1190.72 768.542ZM1191.43 770.409L1191.49 771.407L1192.84 771.325L1192.36 770.058L1191.43 770.409ZM1158.58 772.415L1157.78 773.006L1158.1 773.446L1158.64 773.413L1158.58 772.415ZM1153.29 765.208L1152.36 764.853L1152.16 765.362L1152.49 765.8L1153.29 765.208ZM1164.95 734.546L1165.56 733.758L1164.49 732.922L1164.01 734.19L1164.95 734.546ZM1166.52 735.774L1167.11 736.58L1168.17 735.798L1167.13 734.986L1166.52 735.774ZM1143.88 752.392L1143.08 752.984L1143.67 753.79L1144.47 753.198L1143.88 752.392ZM1139.16 745.959L1138.57 745.153L1137.76 745.745L1138.35 746.551L1139.16 745.959ZM1170.45 722.985L1171.26 722.393L1170.67 721.587L1169.86 722.179L1170.45 722.985ZM1175.17 729.418L1176.11 729.78L1176.31 729.268L1175.98 728.826L1175.17 729.418ZM1161.02 767.351L1158.78 764.304L1157.17 765.488L1159.41 768.535L1161.02 767.351ZM1158.04 765.894L1199.35 763.255L1199.22 761.259L1157.91 763.898L1158.04 765.894ZM1198.48 762.849L1203.2 769.281L1204.81 768.098L1200.09 761.665L1198.48 762.849ZM1203.42 767.883L1172.12 790.858L1173.31 792.47L1204.6 769.496L1203.42 767.883ZM1173.52 791.072L1168.8 784.639L1167.19 785.823L1171.91 792.256L1173.52 791.072ZM1168.59 786.037L1191.32 769.348L1190.13 767.736L1167.4 784.425L1168.59 786.037ZM1189.79 768.894L1190.49 770.761L1192.36 770.058L1191.66 768.191L1189.79 768.894ZM1191.36 769.411L1158.52 771.417L1158.64 773.413L1191.49 771.407L1191.36 769.411ZM1159.39 771.823L1154.1 764.617L1152.49 765.8L1157.78 773.006L1159.39 771.823ZM1154.23 765.564L1165.88 734.901L1164.01 734.19L1152.36 764.853L1154.23 765.564ZM1164.33 735.333L1165.9 736.562L1167.13 734.986L1165.56 733.758L1164.33 735.333ZM1165.93 734.968L1143.29 751.586L1144.47 753.198L1167.11 736.58L1165.93 734.968ZM1144.69 751.8L1139.97 745.367L1138.35 746.551L1143.08 752.984L1144.69 751.8ZM1139.75 746.765L1171.04 723.791L1169.86 722.179L1138.57 745.153L1139.75 746.765ZM1169.65 723.577L1174.37 730.009L1175.98 728.826L1171.26 722.393L1169.65 723.577ZM1174.24 729.056L1159.28 767.581L1161.15 768.305L1176.11 729.78L1174.24 729.056ZM1210.14 777.039L1210.94 776.447L1210.35 775.641L1209.55 776.233L1210.14 777.039ZM1214.86 783.471L1215.45 784.277L1216.26 783.685L1215.67 782.879L1214.86 783.471ZM1183.57 806.445L1182.76 807.037L1183.35 807.843L1184.16 807.252L1183.57 806.445ZM1178.85 800.013L1178.25 799.207L1177.45 799.799L1178.04 800.605L1178.85 800.013ZM1209.33 777.631L1214.05 784.063L1215.67 782.879L1210.94 776.447L1209.33 777.631ZM1214.27 782.665L1182.98 805.639L1184.16 807.252L1215.45 784.277L1214.27 782.665ZM1184.38 805.854L1179.65 799.421L1178.04 800.605L1182.76 807.037L1184.38 805.854ZM1179.44 800.819L1210.73 777.845L1209.55 776.233L1178.25 799.207L1179.44 800.819ZM1243.38 822.318L1243.97 823.124L1244.78 822.533L1244.19 821.727L1243.38 822.318ZM1238.01 826.26L1237.21 826.852L1237.8 827.658L1238.61 827.066L1238.01 826.26ZM1220.33 802.174L1221.14 801.583L1220.54 800.777L1219.74 801.368L1220.33 802.174ZM1211.91 808.353L1211.32 807.547L1210.52 808.139L1211.11 808.945L1211.91 808.353ZM1226.4 828.086L1226.99 828.892L1227.8 828.3L1227.21 827.494L1226.4 828.086ZM1221.37 831.779L1220.57 832.37L1221.16 833.176L1221.96 832.585L1221.37 831.779ZM1206.88 812.046L1207.69 811.454L1207.1 810.648L1206.29 811.24L1206.88 812.046ZM1194.41 821.207L1193.6 821.799L1194.19 822.605L1195 822.013L1194.41 821.207ZM1189.68 814.775L1189.09 813.969L1188.29 814.56L1188.88 815.367L1189.68 814.775ZM1220.98 791.8L1221.78 791.209L1221.19 790.403L1220.38 790.994L1220.98 791.8ZM1242.79 821.512L1237.42 825.454L1238.61 827.066L1243.97 823.124L1242.79 821.512ZM1238.82 825.668L1221.14 801.583L1219.52 802.766L1237.21 826.852L1238.82 825.668ZM1219.74 801.368L1211.32 807.547L1212.51 809.159L1220.92 802.98L1219.74 801.368ZM1211.11 808.945L1225.6 828.677L1227.21 827.494L1212.72 807.761L1211.11 808.945ZM1225.81 827.28L1220.78 830.973L1221.96 832.585L1226.99 828.892L1225.81 827.28ZM1222.18 831.187L1207.69 811.454L1206.08 812.638L1220.57 832.37L1222.18 831.187ZM1206.29 811.24L1193.82 820.401L1195 822.013L1207.48 812.852L1206.29 811.24ZM1195.21 820.615L1190.49 814.183L1188.88 815.367L1193.6 821.799L1195.21 820.615ZM1190.28 815.581L1221.57 792.607L1220.38 790.994L1189.09 813.969L1190.28 815.581ZM1220.17 792.392L1242.58 822.91L1244.19 821.727L1221.78 791.209L1220.17 792.392ZM1223.5 846.534L1222.9 845.728L1222.1 846.319L1222.69 847.125L1223.5 846.534ZM1228.87 842.592L1229.67 842L1229.08 841.194L1228.27 841.786L1228.87 842.592ZM1244.06 863.292L1244.65 864.098L1245.46 863.506L1244.87 862.7L1244.06 863.292ZM1238.69 867.234L1237.89 867.825L1238.48 868.631L1239.29 868.04L1238.69 867.234ZM1210.96 843.754L1210.77 842.772L1209.22 843.076L1210.15 844.346L1210.96 843.754ZM1253.05 835.482L1253.85 834.89L1253.48 834.379L1252.85 834.501L1253.05 835.482ZM1258.16 842.447L1259.04 842.921L1259.34 842.365L1258.97 841.855L1258.16 842.447ZM1237.77 880.269L1236.96 880.861L1237.9 882.135L1238.65 880.743L1237.77 880.269ZM1232.62 873.256L1231.75 872.768L1231.43 873.33L1231.81 873.848L1232.62 873.256ZM1251.37 839.689L1252.18 839.098L1251.26 837.844L1250.5 839.202L1251.37 839.689ZM1253.64 842.785L1253.85 843.763L1255.37 843.443L1254.45 842.193L1253.64 842.785ZM1216.07 850.718L1215.27 851.31L1215.65 851.83L1216.28 851.697L1216.07 850.718ZM1224.09 847.34L1229.46 843.398L1228.27 841.786L1222.9 845.728L1224.09 847.34ZM1228.06 843.184L1243.26 863.884L1244.87 862.7L1229.67 842L1228.06 843.184ZM1243.47 862.486L1238.1 866.428L1239.29 868.04L1244.65 864.098L1243.47 862.486ZM1239.5 866.642L1224.3 845.942L1222.69 847.125L1237.89 867.825L1239.5 866.642ZM1211.15 844.735L1253.24 836.463L1252.85 834.501L1210.77 842.772L1211.15 844.735ZM1252.24 836.074L1257.35 843.039L1258.97 841.855L1253.85 834.89L1252.24 836.074ZM1257.28 841.972L1236.89 879.794L1238.65 880.743L1259.04 842.921L1257.28 841.972ZM1238.58 879.677L1233.43 872.664L1231.81 873.848L1236.96 880.861L1238.58 879.677ZM1233.49 873.744L1252.25 840.177L1250.5 839.202L1231.75 872.768L1233.49 873.744ZM1250.57 840.281L1252.84 843.377L1254.45 842.193L1252.18 839.098L1250.57 840.281ZM1253.44 841.806L1215.87 849.74L1216.28 851.697L1253.85 843.763L1253.44 841.806ZM1216.88 850.126L1211.77 843.162L1210.15 844.346L1215.27 851.31L1216.88 850.126Z" fill="url(#paint9_linear_65_37)" mask="url(#path-6-outside-1_65_37)"/>
<defs>
<linearGradient id="paint0_linear_65_37" x1="211.223" y1="0" x2="211.223" y2="960.152" gradientUnits="userSpaceOnUse">
<stop stop-color="#18181A"/>
</linearGradient>
<linearGradient id="paint1_linear_65_37" x1="322.89" y1="-107.812" x2="322.89" y2="1654.57" gradientUnits="userSpaceOnUse">
<stop stop-color="#18181A"/>
</linearGradient>
<linearGradient id="paint2_linear_65_37" x1="310.588" y1="120.684" x2="324.501" y2="1526.31" gradientUnits="userSpaceOnUse">
<stop stop-color="#3A3645"/>
<stop offset="1" stop-color="#FFA357"/>
</linearGradient>
<linearGradient id="paint3_linear_65_37" x1="583.28" y1="-307.081" x2="583.28" y2="833.998" gradientUnits="userSpaceOnUse">
<stop stop-color="#18181A"/>
</linearGradient>
<linearGradient id="paint4_linear_65_37" x1="570.978" y1="-159.138" x2="576.811" y2="751.01" gradientUnits="userSpaceOnUse">
<stop stop-color="#3A3645"/>
<stop offset="1" stop-color="#FFA357"/>
</linearGradient>
<linearGradient id="paint5_linear_65_37" x1="164.052" y1="0" x2="164.052" y2="960.152" gradientUnits="userSpaceOnUse">
<stop stop-color="#18181A"/>
</linearGradient>
<linearGradient id="paint6_linear_65_37" x1="92.6397" y1="724.339" x2="256.028" y2="14.773" gradientUnits="userSpaceOnUse">
<stop stop-color="#3A3645"/>
<stop offset="1" stop-color="#9F79FF"/>
</linearGradient>
<linearGradient id="paint7_linear_65_37" x1="19.8568" y1="36.0334" x2="19.8568" y2="901.994" gradientUnits="userSpaceOnUse">
<stop stop-color="#18181A"/>
</linearGradient>
<linearGradient id="paint8_linear_65_37" x1="-208.55" y1="155.534" x2="198.922" y2="929.821" gradientUnits="userSpaceOnUse">
<stop stop-color="#9186AB"/>
<stop offset="1" stop-color="#CA4E7E"/>
</linearGradient>
<linearGradient id="paint9_linear_65_37" x1="1080.73" y1="632.584" x2="1254.73" y2="869.569" gradientUnits="userSpaceOnUse">
<stop stop-color="#686C9A"/>
<stop offset="1" stop-color="#FF6464" stop-opacity="0.34"/>
</linearGradient>
</defs>
</svg>
