<svg width="118" height="117" viewBox="0 0 118 117" fill="none" xmlns="http://www.w3.org/2000/svg">
<path d="M36.0288 67.0981V64.5781L42.5088 58.4581C43.0208 57.9941 43.3968 57.5781 43.6368 57.2101C43.8768 56.8421 44.0368 56.5061 44.1168 56.2021C44.2128 55.8981 44.2608 55.6181 44.2608 55.3621C44.2608 54.6901 44.0288 54.1781 43.5648 53.8261C43.1168 53.4581 42.4528 53.2741 41.5728 53.2741C40.8688 53.2741 40.2128 53.4101 39.6048 53.6821C39.0128 53.9541 38.5088 54.3781 38.0928 54.9541L35.2608 53.1301C35.9008 52.1701 36.7968 51.4101 37.9488 50.8501C39.1008 50.2901 40.4288 50.0101 41.9328 50.0101C43.1808 50.0101 44.2688 50.2181 45.1968 50.6341C46.1408 51.0341 46.8688 51.6021 47.3808 52.3381C47.9088 53.0741 48.1728 53.9541 48.1728 54.9781C48.1728 55.5221 48.1008 56.0661 47.9568 56.6101C47.8288 57.1381 47.5568 57.6981 47.1408 58.2901C46.7408 58.8821 46.1488 59.5461 45.3648 60.2821L39.9888 65.3461L39.2448 63.9301H48.7248V67.0981H36.0288ZM49.8793 63.5701V60.9541L57.7993 50.2981H61.8793L54.1273 60.9541L52.2313 60.4021H65.4553V63.5701H49.8793ZM58.9273 67.0981V63.5701L59.0473 60.4021V57.2581H62.7193V67.0981H58.9273ZM79.1941 50.2981H83.0821V67.0981H79.1941V50.2981ZM71.5621 67.0981H67.6741V50.2981H71.5621V67.0981ZM79.4821 60.2101H71.2741V56.9221H79.4821V60.2101Z" fill="white"/>
<circle cx="58.9421" cy="58.5984" r="56.2365" stroke="url(#paint0_linear_131_104)" stroke-width="4"/>
<defs>
<linearGradient id="paint0_linear_131_104" x1="58.9421" y1="0.361816" x2="58.9421" y2="116.835" gradientUnits="userSpaceOnUse">
<stop stop-color="#A4CFFF"/>
<stop offset="1" stop-color="#886AFF"/>
</linearGradient>
</defs>
</svg>
