<svg width="19" height="18" viewBox="0 0 19 18" fill="none" xmlns="http://www.w3.org/2000/svg">
<g clip-path="url(#clip0_1963_352)">
<path d="M9.82617 1.62949C12.2309 1.62949 12.5156 1.64004 13.4613 1.68223C14.3402 1.7209 14.8148 1.86855 15.1313 1.9916C15.5496 2.15332 15.852 2.3502 16.1648 2.66309C16.4813 2.97949 16.6746 3.27832 16.8363 3.69668C16.9594 4.01309 17.107 4.49121 17.1457 5.3666C17.1879 6.31582 17.1984 6.60059 17.1984 9.00176C17.1984 11.4064 17.1879 11.6912 17.1457 12.6369C17.107 13.5158 16.9594 13.9904 16.8363 14.3068C16.6746 14.7252 16.4777 15.0275 16.1648 15.3404C15.8484 15.6568 15.5496 15.8502 15.1313 16.0119C14.8148 16.135 14.3367 16.2826 13.4613 16.3213C12.5121 16.3635 12.2273 16.374 9.82617 16.374C7.42148 16.374 7.13672 16.3635 6.19102 16.3213C5.31211 16.2826 4.8375 16.135 4.52109 16.0119C4.10273 15.8502 3.80039 15.6533 3.4875 15.3404C3.17109 15.024 2.97773 14.7252 2.81602 14.3068C2.69297 13.9904 2.54531 13.5123 2.50664 12.6369C2.46445 11.6877 2.45391 11.4029 2.45391 9.00176C2.45391 6.59707 2.46445 6.3123 2.50664 5.3666C2.54531 4.48769 2.69297 4.01309 2.81602 3.69668C2.97773 3.27832 3.17461 2.97598 3.4875 2.66309C3.80391 2.34668 4.10273 2.15332 4.52109 1.9916C4.8375 1.86855 5.31563 1.7209 6.19102 1.68223C7.13672 1.64004 7.42148 1.62949 9.82617 1.62949ZM9.82617 0.00878906C7.38281 0.00878906 7.07695 0.0193359 6.11719 0.0615234C5.16094 0.103711 4.50352 0.258398 3.93398 0.479883C3.33984 0.711914 2.83711 1.01777 2.33789 1.52051C1.83516 2.01973 1.5293 2.52246 1.29727 3.11309C1.07578 3.68613 0.921094 4.34004 0.878906 5.29629C0.836719 6.25957 0.826172 6.56543 0.826172 9.00879C0.826172 11.4521 0.836719 11.758 0.878906 12.7178C0.921094 13.674 1.07578 14.3314 1.29727 14.901C1.5293 15.4951 1.83516 15.9979 2.33789 16.4971C2.83711 16.9963 3.33984 17.3057 3.93047 17.5342C4.50352 17.7557 5.15742 17.9103 6.11367 17.9525C7.07344 17.9947 7.3793 18.0053 9.82266 18.0053C12.266 18.0053 12.5719 17.9947 13.5316 17.9525C14.4879 17.9103 15.1453 17.7557 15.7148 17.5342C16.3055 17.3057 16.8082 16.9963 17.3074 16.4971C17.8066 15.9979 18.116 15.4951 18.3445 14.9045C18.566 14.3314 18.7207 13.6775 18.7629 12.7213C18.8051 11.7615 18.8156 11.4557 18.8156 9.0123C18.8156 6.56895 18.8051 6.26309 18.7629 5.30332C18.7207 4.34707 18.566 3.68965 18.3445 3.12012C18.123 2.52246 17.8172 2.01973 17.3145 1.52051C16.8152 1.02129 16.3125 0.711914 15.7219 0.483398C15.1488 0.261914 14.4949 0.107227 13.5387 0.0650391C12.5754 0.0193359 12.2695 0.00878906 9.82617 0.00878906Z" fill="white"/>
<path d="M9.82617 4.38574C7.27383 4.38574 5.20312 6.45645 5.20312 9.00879C5.20312 11.5611 7.27383 13.6318 9.82617 13.6318C12.3785 13.6318 14.4492 11.5611 14.4492 9.00879C14.4492 6.45645 12.3785 4.38574 9.82617 4.38574ZM9.82617 12.0076C8.17031 12.0076 6.82734 10.6646 6.82734 9.00879C6.82734 7.35293 8.17031 6.00996 9.82617 6.00996C11.482 6.00996 12.825 7.35293 12.825 9.00879C12.825 10.6646 11.482 12.0076 9.82617 12.0076Z" fill="white"/>
<path d="M15.7113 4.20296C15.7113 4.80061 15.2262 5.28225 14.632 5.28225C14.0344 5.28225 13.5527 4.7971 13.5527 4.20296C13.5527 3.6053 14.0379 3.12366 14.632 3.12366C15.2262 3.12366 15.7113 3.60881 15.7113 4.20296Z" fill="white"/>
</g>
<defs>
<clipPath id="clip0_1963_352">
<rect width="18" height="18" fill="white" transform="translate(0.826172 0.00878906)"/>
</clipPath>
</defs>
</svg>
